<?xml version="1.0" encoding="UTF-8"?><svg id="Calque_1" xmlns="http://www.w3.org/2000/svg" xmlns:xlink="http://www.w3.org/1999/xlink" viewBox="0 0 367 121"><defs><style>.cls-1{fill:#fff;}.cls-2{fill:none;}.cls-3{clip-path:url(#clippath-1);}.cls-4{clip-path:url(#clippath);}</style><clipPath id="clippath"><rect class="cls-2" x="-178" y="262" width="306" height="306"/></clipPath><clipPath id="clippath-1"><rect class="cls-2" x="164.5" y="262" width="306" height="306"/></clipPath></defs><g class="cls-4"><image width="564" height="1086" transform="translate(-195.85 -502.64) scale(1.25 1.01)" xlink:href="3799a4a4ec3fe630c23864e34ffa5a1a.jpg"/></g><g class="cls-3"><image width="564" height="869" transform="translate(148 16) scale(.68)" xlink:href="a0c88d378816f466a25c9bae4ccd2d96.jpg"/></g><path class="cls-1" d="M24.45,50.4v-7.04c1.33.69,2.62,1.16,3.85,1.41,1.23.25,2.32.37,3.29.37s1.71-.28,2.22-.84.75-1.53.75-2.89v-20.16h7.29v20.16c0,2.67-.42,4.79-1.27,6.36s-1.99,2.69-3.43,3.38c-1.44.68-3.07,1.02-4.88,1.02-1.44,0-2.82-.17-4.14-.5-1.32-.33-2.54-.75-3.67-1.26Z"/><path class="cls-1" d="M57.86,52.16c-1.86,0-3.61-.48-5.24-1.44-1.63-.96-2.96-2.33-3.97-4.12-1.01-1.79-1.52-3.9-1.52-6.35s.5-4.54,1.51-6.29,2.33-3.09,3.96-4.02,3.39-1.4,5.27-1.4,3.48.37,4.86,1.11c1.38.74,2.49,1.74,3.34,3,.85,1.26,1.4,2.68,1.67,4.26.26,1.58.21,3.21-.17,4.89h-14.74v-3.65h9.47l-1.03.67c.04-.52.03-1.06-.06-1.6-.08-.54-.24-1.04-.48-1.5-.24-.46-.58-.82-1.02-1.1-.44-.28-1.01-.42-1.7-.42-.77,0-1.43.18-1.99.55s-1,.9-1.31,1.6c-.31.7-.46,1.55-.46,2.55v2.83c0,.94.13,1.76.41,2.45.27.69.67,1.23,1.2,1.61s1.2.57,2.01.57c.66,0,1.24-.13,1.73-.4.49-.27.84-.7,1.03-1.28h7.16c-.22,1.38-.78,2.63-1.65,3.76-.88,1.12-2.02,2.02-3.42,2.68-1.4.66-3.02.99-4.85.99Z"/><path class="cls-1" d="M73.63,51.44v-22.3h7.2v22.3h-7.2ZM79.3,41.99c0-3.01.38-5.49,1.15-7.42s1.73-3.37,2.9-4.3,2.36-1.4,3.58-1.4c.24,0,.48.01.72.03.24.02.46.06.67.1l.07,7.25c-.38-.04-.76-.08-1.15-.1-.39-.02-.76-.03-1.1-.03-1.05,0-1.98.19-2.78.58-.8.39-1.43,1.01-1.87,1.87s-.66,2-.66,3.42h-1.53Z"/><path class="cls-1" d="M101.62,52.16c-1.86,0-3.61-.48-5.24-1.44-1.63-.96-2.96-2.33-3.97-4.12-1.01-1.79-1.52-3.9-1.52-6.35s.5-4.54,1.51-6.29,2.33-3.09,3.96-4.02,3.39-1.4,5.27-1.4,3.48.37,4.86,1.11c1.38.74,2.49,1.74,3.34,3,.85,1.26,1.4,2.68,1.67,4.26.26,1.58.21,3.21-.17,4.89h-14.74v-3.65h9.47l-1.03.67c.04-.52.03-1.06-.06-1.6-.08-.54-.24-1.04-.48-1.5-.24-.46-.58-.82-1.02-1.1-.44-.28-1.01-.42-1.7-.42-.77,0-1.43.18-1.99.55s-1,.9-1.31,1.6c-.31.7-.46,1.55-.46,2.55v2.83c0,.94.13,1.76.41,2.45.27.69.67,1.23,1.2,1.61s1.2.57,2.01.57c.66,0,1.24-.13,1.73-.4.49-.27.84-.7,1.03-1.28h7.16c-.22,1.38-.78,2.63-1.65,3.76-.88,1.12-2.02,2.02-3.42,2.68-1.4.66-3.02.99-4.85.99Z"/><path class="cls-1" d="M117.4,51.44v-22.16h6.34l.76,3.13c.77-1.33,1.72-2.31,2.87-2.92,1.15-.61,2.4-.92,3.75-.92,1.91,0,3.46.43,4.67,1.28,1.21.85,2.1,2.03,2.67,3.53s.86,3.22.86,5.15v12.92h-7.25v-12.92c0-1.17-.29-2.04-.86-2.6s-1.26-.84-2.07-.84-1.58.23-2.27.7c-.69.47-1.24,1.21-1.65,2.24-.41,1.03-.62,2.39-.62,4.08v9.34h-7.2ZM146.44,51.44v-12.92c0-1.17-.28-2.04-.84-2.6s-1.26-.84-2.1-.84c-1.23,0-2.24.53-3.01,1.59-.78,1.06-1.17,2.87-1.17,5.43h-2.83c0-2.66.24-4.86.72-6.6.48-1.75,1.14-3.13,1.98-4.14.84-1.01,1.8-1.73,2.89-2.16,1.09-.43,2.25-.64,3.48-.64,1.89,0,3.44.43,4.65,1.28,1.21.85,2.1,2.03,2.68,3.53s.87,3.22.87,5.15v12.92h-7.29Z"/><path class="cls-1" d="M157.65,29.28h8.24l4.54,15.86h-1.1l4.52-15.86h7.29l-8.64,25.74c-1.05,3.03-2.27,5.11-3.66,6.25-1.39,1.14-3,1.71-4.85,1.71-1.12,0-2.25-.1-3.39-.3s-2.26-.54-3.39-1v-6.19c.84.39,1.66.69,2.46.89.8.2,1.59.3,2.35.3.51,0,.99-.09,1.44-.28.45-.19.86-.51,1.24-.98s.69-1.1.95-1.91l.72-2.07-8.73-22.16Z"/><path class="cls-1" d="M208.74,52.16c-2.54,0-4.8-.68-6.81-2.03-2-1.35-3.58-3.21-4.75-5.59-1.16-2.38-1.74-5.11-1.74-8.2,0-2.32.34-4.45,1.02-6.38s1.66-3.59,2.92-5c1.27-1.4,2.78-2.49,4.54-3.25,1.76-.76,3.72-1.15,5.88-1.15,3.27,0,5.93.74,7.99,2.22,2.05,1.48,3.52,3.79,4.39,6.94l-7.65,1.37c-.51-1.25-1.18-2.23-2.02-2.95-.84-.72-1.88-1.08-3.11-1.08s-2.22.38-3.16,1.12c-.94.75-1.68,1.82-2.22,3.2s-.81,3.03-.81,4.95.27,3.55.81,4.94c.54,1.39,1.28,2.46,2.22,3.21.94.75,1.99,1.12,3.16,1.12s2.19-.24,3.09-.73,1.62-1.15,2.14-1.98.78-1.75.78-2.76h1.26c0,2.46-.29,4.59-.88,6.39-.58,1.8-1.46,3.19-2.63,4.16-1.17.98-2.65,1.46-4.43,1.46ZM216.33,51.44l-.9-6.21v-5.35l-6.01-.04v-4.41h12.85v16.02h-5.94Z"/><path class="cls-1" d="M229.08,29.14h7.2v13.41c0,1.02.26,1.77.78,2.26.52.49,1.18.73,1.99.73.73,0,1.47-.18,2.19-.54s1.33-.97,1.81-1.84.72-2.08.72-3.62h1.58c0,2.94-.34,5.31-1.01,7.12-.67,1.81-1.59,3.12-2.76,3.95-1.16.83-2.48,1.24-3.95,1.24s-2.88-.25-4.19-.76-2.36-1.38-3.16-2.61c-.8-1.23-1.2-2.92-1.2-5.08v-14.24ZM243.77,29.14h7.2v22.3h-7.2v-22.3Z"/><path class="cls-1" d="M258.56,51.44v-31.05h7.2v31.05h-7.2Z"/><path class="cls-1" d="M273.41,51.44v-31.05h7.2v31.05h-7.2Z"/><path class="cls-1" d="M288.95,51.44v-22.3h7.2v22.3h-7.2Z"/><path class="cls-1" d="M313.3,52.16c-1.86,0-3.61-.48-5.24-1.44-1.63-.96-2.96-2.33-3.97-4.12-1.01-1.79-1.52-3.9-1.52-6.35s.5-4.54,1.51-6.29,2.33-3.09,3.96-4.02,3.39-1.4,5.27-1.4,3.48.37,4.86,1.11c1.38.74,2.49,1.74,3.34,3,.85,1.26,1.4,2.68,1.67,4.26.26,1.58.21,3.21-.17,4.89h-14.74v-3.65h9.47l-1.03.67c.04-.52.03-1.06-.06-1.6-.08-.54-.24-1.04-.48-1.5-.24-.46-.58-.82-1.02-1.1-.44-.28-1.01-.42-1.7-.42-.77,0-1.43.18-1.99.55s-1,.9-1.31,1.6c-.31.7-.46,1.55-.46,2.55v2.83c0,.94.13,1.76.41,2.45.27.69.67,1.23,1.2,1.61s1.2.57,2.01.57c.66,0,1.24-.13,1.73-.4.49-.27.84-.7,1.03-1.28h7.16c-.22,1.38-.78,2.63-1.65,3.76-.88,1.12-2.02,2.02-3.42,2.68-1.4.66-3.02.99-4.85.99Z"/><path class="cls-1" d="M326.62,33.93v-4.66h14.92v4.66h-14.92ZM337.26,52.16c-1.41,0-2.73-.26-3.95-.77s-2.21-1.31-2.95-2.4c-.74-1.09-1.11-2.49-1.11-4.2v-21.13h7.25v20.86c0,1.35.67,2.03,2,2.03.42,0,.87-.05,1.34-.15.47-.1,1.02-.26,1.65-.48l1.06,5.02c-.92.33-1.79.62-2.62.85-.83.24-1.72.36-2.67.36Z"/><path class="cls-1" d="M24.74,85.33h1.68v8.64c0,1.28.31,2.25.94,2.92.62.67,1.52,1.01,2.7,1.01.97,0,1.79-.26,2.48-.78s1.21-1.22,1.57-2.1c.36-.88.54-1.85.54-2.91h.8c0,1.47-.23,2.75-.68,3.84-.46,1.09-1.1,1.94-1.93,2.53-.83.59-1.82.89-2.96.89-1.06,0-1.98-.2-2.75-.59s-1.36-.99-1.78-1.78c-.42-.79-.62-1.77-.62-2.94v-8.73ZM34.66,85.33h1.68v13.77h-1.68v-13.77Z"/><path class="cls-1" d="M44.96,99.11v-13.76h1.42l.26,3.39v10.37h-1.68ZM54.92,99.11v-8.11c0-1.46-.35-2.58-1.05-3.35-.7-.77-1.67-1.16-2.89-1.16-.9,0-1.67.25-2.33.74s-1.15,1.18-1.49,2.07c-.34.89-.52,1.93-.52,3.12h-.74c0-1.51.21-2.82.62-3.92.41-1.11,1.02-1.96,1.83-2.57.81-.6,1.81-.91,3.01-.91,1.06,0,1.98.24,2.76.71.78.47,1.38,1.16,1.8,2.05.43.89.64,1.96.64,3.21v8.11h-1.64Z"/><path class="cls-1" d="M78.67,99.43c-1.33,0-2.43-.19-3.3-.58-.87-.39-1.51-.91-1.95-1.57-.43-.66-.67-1.39-.71-2.2h1.68c.06.98.45,1.71,1.18,2.21.73.5,1.73.75,2.99.75.66,0,1.27-.11,1.83-.33.56-.22,1.01-.52,1.36-.9.34-.38.51-.81.51-1.3,0-.62-.23-1.1-.68-1.45-.46-.35-1.17-.65-2.16-.9l-2.51-.75c-1.21-.35-2.13-.84-2.77-1.49-.64-.64-.96-1.41-.96-2.31,0-1.08.47-1.95,1.41-2.6.94-.65,2.16-.98,3.67-.98,1.64,0,2.92.32,3.84.97s1.4,1.46,1.45,2.42h-1.74c-.11-.69-.46-1.2-1.06-1.53s-1.43-.5-2.49-.5-1.87.24-2.45.72c-.58.48-.87,1.01-.87,1.58,0,1.1.95,1.91,2.84,2.42l2.47.77c1.24.35,2.18.81,2.83,1.39.65.58.98,1.32.98,2.23,0,.67-.22,1.3-.65,1.9-.43.6-1.05,1.08-1.85,1.46-.8.37-1.77.56-2.9.56Z"/><path class="cls-1" d="M92.43,81.72c-.36,0-.65-.11-.87-.33-.22-.22-.33-.5-.33-.84s.11-.59.33-.79c.22-.2.51-.3.87-.3.38,0,.67.1.88.3s.32.46.32.79-.11.62-.32.84c-.21.22-.51.33-.88.33ZM91.59,99.11v-13.77h1.68v13.77h-1.68Z"/><path class="cls-1" d="M100.19,86.57v-1.22h8.66v1.22h-8.66ZM106.23,99.43c-.72,0-1.35-.14-1.91-.42-.56-.28-.99-.7-1.3-1.25-.31-.55-.47-1.23-.47-2.04v-14.28h1.64v14.25c0,1.57.73,2.35,2.18,2.35.42,0,.83-.05,1.22-.14s.82-.23,1.3-.41l.23,1.23c-.47.21-.95.38-1.42.51-.47.13-.96.2-1.46.2Z"/><path class="cls-1" d="M119.93,99.43c-1.2,0-2.25-.31-3.17-.92-.91-.61-1.63-1.46-2.15-2.54-.52-1.08-.78-2.31-.78-3.69,0-1.51.26-2.8.78-3.89.52-1.08,1.23-1.91,2.15-2.49.91-.58,1.97-.87,3.18-.87,1.01,0,1.88.21,2.59.62.71.41,1.28.97,1.72,1.67.43.71.74,1.5.92,2.39.18.89.25,1.81.21,2.75h-10.17v-1.16h9.14l-.67.43c.03-.63,0-1.25-.11-1.88s-.29-1.2-.57-1.72-.66-.94-1.15-1.26c-.49-.32-1.13-.48-1.9-.48-.99,0-1.81.25-2.46.76-.66.51-1.15,1.17-1.47,1.97-.32.81-.49,1.67-.49,2.59v.71c0,1.05.16,2,.49,2.84.32.84.81,1.51,1.46,2,.65.49,1.47.74,2.46.74s1.84-.25,2.49-.75c.64-.5,1.03-1.23,1.15-2.2h1.8c-.15.92-.47,1.7-.96,2.35-.5.65-1.13,1.14-1.89,1.49-.76.34-1.62.51-2.58.51Z"/><path class="cls-1" d="M145.24,99.43c-1.1,0-2.01-.2-2.73-.6-.72-.4-1.25-.92-1.59-1.54-.35-.63-.52-1.28-.52-1.94,0-.97.23-1.74.7-2.32s1.1-1,1.88-1.26c.79-.26,1.65-.39,2.59-.39.71,0,1.44.08,2.2.24.76.16,1.49.38,2.18.66v1.13c-.6-.26-1.29-.47-2.07-.62-.78-.15-1.49-.23-2.13-.23-.99,0-1.83.21-2.52.64-.7.43-1.04,1.15-1.04,2.16,0,.76.26,1.41.78,1.94.52.53,1.35.8,2.5.8.78,0,1.5-.19,2.16-.57.66-.38,1.19-.85,1.59-1.41s.6-1.13.6-1.7h.42c0,.88-.21,1.7-.62,2.47s-.99,1.38-1.74,1.85-1.63.7-2.63.7ZM150.02,99.11l-.22-2.86v-6.09c0-1.38-.3-2.36-.9-2.94-.6-.58-1.46-.87-2.57-.87-.62,0-1.19.09-1.73.27-.53.18-.96.46-1.28.86s-.48.91-.48,1.54h-1.91c0-.98.24-1.76.73-2.34.48-.58,1.13-1.01,1.95-1.26.82-.26,1.72-.38,2.72-.38s1.87.17,2.64.51c.77.34,1.38.89,1.83,1.65.45.76.67,1.76.67,2.99v8.92h-1.46ZM148.44,82.74l-4.96-4.63,1.23-1.02,4.6,4.94-.87.7Z"/><path class="cls-1" d="M166.29,85.35h1.9l4.84,12.31h-.35l4.84-12.31h1.9l-5.68,13.76h-1.77l-5.68-13.76Z"/><path class="cls-1" d="M190.3,99.43c-1.23,0-2.31-.28-3.25-.83-.94-.55-1.67-1.36-2.21-2.44-.54-1.07-.8-2.39-.8-3.94s.27-2.87.8-3.94c.54-1.07,1.27-1.88,2.21-2.43.94-.55,2.02-.83,3.25-.83s2.31.28,3.25.83c.94.55,1.67,1.36,2.2,2.43.53,1.07.8,2.38.8,3.94s-.27,2.87-.8,3.94c-.53,1.07-1.27,1.88-2.2,2.44-.94.55-2.02.83-3.25.83ZM190.27,97.96c1.01,0,1.86-.24,2.54-.72s1.18-1.15,1.52-2.01c.33-.86.5-1.87.5-3.02,0-1.73-.37-3.12-1.11-4.18s-1.87-1.58-3.39-1.58c-1.01,0-1.86.24-2.53.72s-1.17,1.15-1.51,2.02c-.33.87-.5,1.87-.5,3.02,0,1.72.37,3.11,1.11,4.16.74,1.05,1.86,1.58,3.37,1.58Z"/><path class="cls-1" d="M201.57,86.57v-1.22h8.66v1.22h-8.66ZM207.61,99.43c-.72,0-1.35-.14-1.91-.42-.56-.28-.99-.7-1.3-1.25-.31-.55-.47-1.23-.47-2.04v-14.28h1.64v14.25c0,1.57.73,2.35,2.18,2.35.42,0,.83-.05,1.22-.14s.82-.23,1.3-.41l.23,1.23c-.47.21-.95.38-1.42.51-.47.13-.96.2-1.46.2Z"/><path class="cls-1" d="M216.72,99.11v-13.77h1.68v13.77h-1.68ZM217.78,92.8c0-1.72.15-3.15.45-4.29s.76-2,1.39-2.57c.63-.57,1.43-.86,2.41-.86.34,0,.65.02.94.07.29.05.57.13.86.23l-.19,1.64c-.28-.11-.59-.2-.93-.27-.34-.07-.63-.11-.88-.11-.86,0-1.54.26-2.04.78s-.85,1.24-1.07,2.17c-.21.92-.32,1.99-.32,3.2h-.62Z"/><path class="cls-1" d="M233.84,99.43c-1.2,0-2.25-.31-3.17-.92-.91-.61-1.63-1.46-2.15-2.54-.52-1.08-.78-2.31-.78-3.69,0-1.51.26-2.8.78-3.89.52-1.08,1.23-1.91,2.15-2.49.91-.58,1.97-.87,3.18-.87,1.01,0,1.88.21,2.59.62.71.41,1.28.97,1.72,1.67.43.71.74,1.5.92,2.39.18.89.25,1.81.21,2.75h-10.17v-1.16h9.14l-.67.43c.03-.63,0-1.25-.11-1.88s-.29-1.2-.57-1.72-.66-.94-1.15-1.26c-.49-.32-1.13-.48-1.9-.48-.99,0-1.81.25-2.46.76-.66.51-1.15,1.17-1.47,1.97-.32.81-.49,1.67-.49,2.59v.71c0,1.05.16,2,.49,2.84.32.84.81,1.51,1.46,2,.65.49,1.47.74,2.46.74s1.84-.25,2.49-.75c.64-.5,1.03-1.23,1.15-2.2h1.8c-.15.92-.47,1.7-.96,2.35-.5.65-1.13,1.14-1.89,1.49-.76.34-1.62.51-2.58.51Z"/><path class="cls-1" d="M256.45,81.72c-.36,0-.65-.11-.87-.33-.22-.22-.33-.5-.33-.84s.11-.59.33-.79c.22-.2.51-.3.87-.3.38,0,.67.1.88.3s.32.46.32.79-.11.62-.32.84c-.21.22-.51.33-.88.33ZM255.61,99.11v-13.77h1.68v13.77h-1.68Z"/><path class="cls-1" d="M266.24,99.11v-13.76h1.42l.2,2.97c.42-1.03,1.02-1.84,1.83-2.42.8-.58,1.78-.87,2.94-.87,1.06,0,1.98.24,2.76.71.78.47,1.38,1.16,1.8,2.05.43.89.64,1.96.64,3.21v8.11h-1.64v-8.11c0-1.46-.35-2.58-1.05-3.35-.7-.77-1.67-1.16-2.89-1.16-.9,0-1.67.25-2.33.74s-1.15,1.18-1.49,2.07c-.34.89-.52,1.93-.52,3.12v6.68h-1.68ZM285.91,99.11v-8.11c0-1.46-.35-2.58-1.04-3.35-.7-.77-1.65-1.16-2.86-1.16-1.37,0-2.41.52-3.12,1.56-.71,1.04-1.06,2.42-1.06,4.15h-.86c0-1.13.12-2.14.35-3.04.23-.89.58-1.65,1.03-2.26s1.02-1.08,1.69-1.4,1.45-.48,2.33-.48c1.06,0,1.98.24,2.76.71.78.47,1.38,1.16,1.81,2.05.42.89.64,1.96.64,3.21v8.11h-1.67Z"/><path class="cls-1" d="M299.27,99.43c-1.1,0-2.01-.2-2.73-.6-.72-.4-1.25-.92-1.59-1.54-.35-.63-.52-1.28-.52-1.94,0-.97.23-1.74.7-2.32s1.1-1,1.88-1.26c.79-.26,1.65-.39,2.59-.39.71,0,1.44.08,2.2.24.76.16,1.49.38,2.18.66v1.13c-.6-.26-1.29-.47-2.07-.62-.78-.15-1.49-.23-2.13-.23-.99,0-1.83.21-2.52.64-.7.43-1.04,1.15-1.04,2.16,0,.76.26,1.41.78,1.94.52.53,1.35.8,2.5.8.78,0,1.5-.19,2.16-.57.66-.38,1.19-.85,1.59-1.41s.6-1.13.6-1.7h.42c0,.88-.21,1.7-.62,2.47s-.99,1.38-1.74,1.85-1.63.7-2.63.7ZM304.05,99.11l-.22-2.86v-6.09c0-1.38-.3-2.36-.9-2.94-.6-.58-1.46-.87-2.57-.87-.62,0-1.19.09-1.73.27-.53.18-.96.46-1.28.86s-.48.91-.48,1.54h-1.91c0-.98.24-1.76.73-2.34.48-.58,1.13-1.01,1.95-1.26.82-.26,1.72-.38,2.72-.38s1.87.17,2.64.51c.77.34,1.38.89,1.83,1.65.45.76.67,1.76.67,2.99v8.92h-1.46Z"/><path class="cls-1" d="M318.25,106.17c-1.32,0-2.48-.19-3.48-.57-1-.38-1.77-.9-2.33-1.54-.56-.65-.83-1.37-.83-2.16,0-1.11.41-1.96,1.23-2.53.82-.58,1.88-.86,3.2-.86l.64.71c-1.09,0-1.94.24-2.54.71-.6.47-.9,1.12-.9,1.93s.42,1.49,1.25,2.07,2.09.87,3.76.87c1.26,0,2.36-.18,3.31-.53.95-.35,1.7-.82,2.23-1.39.54-.58.8-1.2.8-1.86,0-.48-.18-.9-.54-1.26-.36-.36-.92-.54-1.66-.54h-5.73c-.94,0-1.72-.14-2.35-.41-.63-.27-1.1-.63-1.43-1.07-.32-.44-.49-.92-.49-1.42,0-.58.16-1.07.49-1.46s.74-.69,1.25-.89c.51-.2,1.05-.3,1.61-.3l.22.7c-.3,0-.6.07-.91.21-.31.14-.57.35-.79.62-.22.28-.33.63-.33,1.05,0,.47.19.88.58,1.2.39.33,1.1.49,2.15.49h5.73c1.22,0,2.17.28,2.86.83.69.55,1.04,1.28,1.04,2.19,0,.85-.32,1.68-.96,2.48s-1.56,1.46-2.75,1.97c-1.2.51-2.64.77-4.34.77ZM318.77,95.19c-1.04,0-1.97-.21-2.79-.65-.82-.43-1.46-1.03-1.94-1.8-.47-.77-.71-1.65-.71-2.65s.24-1.89.71-2.65c.47-.76,1.12-1.36,1.94-1.78.82-.43,1.75-.64,2.79-.64s1.93.21,2.73.64c.81.43,1.45,1.02,1.92,1.78.47.76.71,1.65.71,2.65s-.24,1.88-.71,2.65-1.11,1.37-1.92,1.8c-.81.43-1.72.65-2.73.65ZM318.76,93.95c1.15,0,2.06-.36,2.72-1.09.66-.73.99-1.65.99-2.75s-.33-2.02-.99-2.73-1.56-1.06-2.7-1.06-2.06.35-2.73,1.06-1.01,1.61-1.01,2.73.34,2.02,1.01,2.75c.67.73,1.58,1.09,2.72,1.09ZM323.11,87.2l-.83-.2c0-.8.14-1.51.43-2.11.29-.6.71-1.08,1.26-1.41s1.24-.51,2.07-.51l-.17,1.71c-.89,0-1.57.21-2.04.62-.47.41-.71,1.05-.71,1.91Z"/><path class="cls-1" d="M336.81,99.43c-1.2,0-2.25-.31-3.17-.92-.91-.61-1.63-1.46-2.15-2.54-.52-1.08-.78-2.31-.78-3.69,0-1.51.26-2.8.78-3.89.52-1.08,1.23-1.91,2.15-2.49.91-.58,1.97-.87,3.18-.87,1.01,0,1.88.21,2.59.62.71.41,1.28.97,1.72,1.67.43.71.74,1.5.92,2.39.18.89.25,1.81.21,2.75h-10.17v-1.16h9.14l-.67.43c.03-.63,0-1.25-.11-1.88s-.29-1.2-.57-1.72-.66-.94-1.15-1.26c-.49-.32-1.13-.48-1.9-.48-.99,0-1.81.25-2.46.76-.66.51-1.15,1.17-1.47,1.97-.32.81-.49,1.67-.49,2.59v.71c0,1.05.16,2,.49,2.84.32.84.81,1.51,1.46,2,.65.49,1.47.74,2.46.74s1.84-.25,2.49-.75c.64-.5,1.03-1.23,1.15-2.2h1.8c-.15.92-.47,1.7-.96,2.35-.5.65-1.13,1.14-1.89,1.49-.76.34-1.62.51-2.58.51Z"/><path class="cls-1" d="M292.55,26.42c-1.36,0-2.42-.35-3.16-1.05-.74-.7-1.11-1.68-1.11-2.96s.37-2.24,1.11-2.98c.74-.74,1.8-1.11,3.16-1.11s2.36.37,3.13,1.11c.76.74,1.15,1.74,1.15,2.98s-.38,2.26-1.15,2.96c-.76.7-1.81,1.05-3.13,1.05Z"/><polygon class="cls-1" points="99.71 26.51 96.34 23.72 105.65 14.83 110.33 18.61 99.71 26.51"/><polygon class="cls-1" points="55.95 26.51 52.57 23.72 61.89 14.83 66.57 18.61 55.95 26.51"/></svg>