<?xml version="1.0" encoding="UTF-8"?><svg id="Calque_1" xmlns="http://www.w3.org/2000/svg" xmlns:xlink="http://www.w3.org/1999/xlink" viewBox="0 0 207 116"><defs><style>.cls-1{fill:none;}.cls-2{fill:#a179e0;}.cls-3{clip-path:url(#clippath);}</style><clipPath id="clippath"><rect class="cls-1" x="88" y="424" width="306" height="306"/></clipPath></defs><g class="cls-3"><image width="564" height="1086" transform="translate(70.15 -340.64) scale(1.25 1.01)" xlink:href="3799a4a4ec3fe630c23864e34ffa5a1a.jpg"/></g><path class="cls-2" d="M25.16,46.91v-7.04c1.33.69,2.62,1.16,3.85,1.41,1.23.25,2.32.37,3.29.37s1.71-.28,2.22-.84.75-1.53.75-2.89v-20.16h7.29v20.16c0,2.67-.42,4.79-1.27,6.36s-1.99,2.69-3.43,3.38c-1.44.68-3.07,1.02-4.88,1.02-1.44,0-2.82-.17-4.14-.5-1.32-.33-2.54-.75-3.67-1.26Z"/><path class="cls-2" d="M58.57,48.66c-1.86,0-3.61-.48-5.24-1.44-1.63-.96-2.96-2.33-3.97-4.12-1.01-1.79-1.52-3.9-1.52-6.35s.5-4.54,1.51-6.29,2.33-3.09,3.96-4.02,3.39-1.4,5.27-1.4,3.48.37,4.86,1.11c1.38.74,2.49,1.74,3.34,3,.85,1.26,1.4,2.68,1.67,4.26.26,1.58.21,3.21-.17,4.89h-14.74v-3.65h9.47l-1.03.67c.04-.52.03-1.06-.06-1.6-.08-.54-.24-1.04-.48-1.5-.24-.46-.58-.82-1.02-1.1-.44-.28-1.01-.42-1.7-.42-.77,0-1.43.18-1.99.55s-1,.9-1.31,1.6c-.31.7-.46,1.55-.46,2.55v2.83c0,.94.13,1.76.41,2.45.27.69.67,1.23,1.2,1.61s1.2.57,2.01.57c.66,0,1.24-.13,1.73-.4.49-.27.84-.7,1.03-1.28h7.16c-.22,1.38-.78,2.63-1.65,3.76-.88,1.12-2.02,2.02-3.42,2.68-1.4.66-3.02.99-4.85.99Z"/><path class="cls-2" d="M74.34,47.94v-22.3h7.2v22.3h-7.2ZM80.01,38.49c0-3.01.38-5.49,1.15-7.42s1.73-3.37,2.9-4.3,2.36-1.4,3.58-1.4c.24,0,.48.01.72.03.24.02.46.06.67.1l.07,7.25c-.38-.04-.76-.08-1.15-.1-.39-.02-.76-.03-1.1-.03-1.05,0-1.98.19-2.78.58-.8.39-1.43,1.01-1.87,1.87s-.66,2-.66,3.42h-1.53Z"/><path class="cls-2" d="M102.33,48.66c-1.86,0-3.61-.48-5.24-1.44-1.63-.96-2.96-2.33-3.97-4.12-1.01-1.79-1.52-3.9-1.52-6.35s.5-4.54,1.51-6.29,2.33-3.09,3.96-4.02,3.39-1.4,5.27-1.4,3.48.37,4.86,1.11c1.38.74,2.49,1.74,3.34,3,.85,1.26,1.4,2.68,1.67,4.26.26,1.58.21,3.21-.17,4.89h-14.74v-3.65h9.47l-1.03.67c.04-.52.03-1.06-.06-1.6-.08-.54-.24-1.04-.48-1.5-.24-.46-.58-.82-1.02-1.1-.44-.28-1.01-.42-1.7-.42-.77,0-1.43.18-1.99.55s-1,.9-1.31,1.6c-.31.7-.46,1.55-.46,2.55v2.83c0,.94.13,1.76.41,2.45.27.69.67,1.23,1.2,1.61s1.2.57,2.01.57c.66,0,1.24-.13,1.73-.4.49-.27.84-.7,1.03-1.28h7.16c-.22,1.38-.78,2.63-1.65,3.76-.88,1.12-2.02,2.02-3.42,2.68-1.4.66-3.02.99-4.85.99Z"/><path class="cls-2" d="M118.1,47.94v-22.16h6.34l.76,3.13c.77-1.33,1.72-2.31,2.87-2.92,1.15-.61,2.4-.92,3.75-.92,1.91,0,3.46.43,4.67,1.28,1.21.85,2.1,2.03,2.67,3.53s.86,3.22.86,5.15v12.92h-7.25v-12.92c0-1.17-.29-2.04-.86-2.6s-1.26-.84-2.07-.84-1.58.23-2.27.7c-.69.47-1.24,1.21-1.65,2.24-.41,1.03-.62,2.39-.62,4.08v9.34h-7.2ZM147.15,47.94v-12.92c0-1.17-.28-2.04-.84-2.6s-1.26-.84-2.1-.84c-1.23,0-2.24.53-3.01,1.59-.78,1.06-1.17,2.87-1.17,5.43h-2.83c0-2.66.24-4.86.72-6.6.48-1.75,1.14-3.13,1.98-4.14.84-1.01,1.8-1.73,2.89-2.16,1.09-.43,2.25-.64,3.48-.64,1.89,0,3.44.43,4.65,1.28,1.21.85,2.1,2.03,2.68,3.53s.87,3.22.87,5.15v12.92h-7.29Z"/><path class="cls-2" d="M158.35,25.78h8.24l4.54,15.86h-1.1l4.52-15.86h7.29l-8.64,25.74c-1.05,3.03-2.27,5.11-3.66,6.25-1.39,1.14-3,1.71-4.85,1.71-1.12,0-2.25-.1-3.39-.3s-2.26-.54-3.39-1v-6.19c.84.39,1.66.69,2.46.89.8.2,1.59.3,2.35.3.51,0,.99-.09,1.44-.28.45-.19.86-.51,1.24-.98s.69-1.1.95-1.91l.72-2.07-8.73-22.16Z"/><path class="cls-2" d="M43.25,104.66c-2.54,0-4.8-.68-6.81-2.03-2-1.35-3.58-3.21-4.75-5.59-1.16-2.38-1.74-5.11-1.74-8.2,0-2.32.34-4.45,1.02-6.38s1.66-3.59,2.92-5c1.27-1.4,2.78-2.49,4.54-3.25,1.76-.76,3.72-1.15,5.88-1.15,3.27,0,5.93.74,7.99,2.22,2.05,1.48,3.52,3.79,4.39,6.94l-7.65,1.37c-.51-1.25-1.18-2.23-2.02-2.95-.84-.72-1.88-1.08-3.11-1.08s-2.22.38-3.16,1.12c-.94.75-1.68,1.82-2.22,3.2s-.81,3.03-.81,4.95.27,3.55.81,4.94c.54,1.39,1.28,2.46,2.22,3.21.94.75,1.99,1.12,3.16,1.12s2.19-.24,3.09-.73,1.62-1.15,2.14-1.98.78-1.75.78-2.76h1.26c0,2.46-.29,4.59-.88,6.39-.58,1.8-1.46,3.19-2.63,4.16-1.17.98-2.65,1.46-4.43,1.46ZM50.83,103.94l-.9-6.21v-5.35l-6.01-.04v-4.41h12.85v16.02h-5.94Z"/><path class="cls-2" d="M63.58,81.65h7.2v13.41c0,1.02.26,1.77.78,2.26.52.49,1.18.73,1.99.73.73,0,1.47-.18,2.19-.54s1.33-.97,1.81-1.84.72-2.08.72-3.62h1.58c0,2.94-.34,5.31-1.01,7.12-.67,1.81-1.59,3.12-2.76,3.95-1.16.83-2.48,1.24-3.95,1.24s-2.88-.25-4.19-.76-2.36-1.38-3.16-2.61c-.8-1.23-1.2-2.92-1.2-5.08v-14.24ZM78.28,81.65h7.2v22.3h-7.2v-22.3Z"/><path class="cls-2" d="M93.06,103.94v-31.05h7.2v31.05h-7.2Z"/><path class="cls-2" d="M107.91,103.94v-31.05h7.2v31.05h-7.2Z"/><path class="cls-2" d="M123.46,103.94v-22.3h7.2v22.3h-7.2Z"/><path class="cls-2" d="M147.8,104.66c-1.86,0-3.61-.48-5.24-1.44-1.63-.96-2.96-2.33-3.97-4.12-1.01-1.79-1.52-3.9-1.52-6.35s.5-4.54,1.51-6.29,2.33-3.09,3.96-4.02,3.39-1.4,5.27-1.4,3.48.37,4.86,1.11c1.38.74,2.49,1.74,3.34,3,.85,1.26,1.4,2.68,1.67,4.26.26,1.58.21,3.21-.17,4.89h-14.74v-3.65h9.47l-1.03.67c.04-.52.03-1.06-.06-1.6-.08-.54-.24-1.04-.48-1.5-.24-.46-.58-.82-1.02-1.1-.44-.28-1.01-.42-1.7-.42-.77,0-1.43.18-1.99.55s-1,.9-1.31,1.6c-.31.7-.46,1.55-.46,2.55v2.83c0,.94.13,1.76.41,2.45.27.69.67,1.23,1.2,1.61s1.2.57,2.01.57c.66,0,1.24-.13,1.73-.4.49-.27.84-.7,1.03-1.28h7.16c-.22,1.38-.78,2.63-1.65,3.76-.88,1.12-2.02,2.02-3.42,2.68-1.4.66-3.02.99-4.85.99Z"/><path class="cls-2" d="M161.12,86.44v-4.66h14.92v4.66h-14.92ZM171.76,104.66c-1.41,0-2.73-.26-3.95-.77s-2.21-1.31-2.95-2.4c-.74-1.09-1.11-2.49-1.11-4.2v-21.13h7.25v20.86c0,1.35.67,2.03,2,2.03.42,0,.87-.05,1.34-.15.47-.1,1.02-.26,1.65-.48l1.06,5.02c-.92.33-1.79.62-2.62.85-.83.24-1.72.36-2.67.36Z"/><polygon class="cls-2" points="56.66 23.01 53.28 20.22 62.6 11.34 67.28 15.12 56.66 23.01"/><path class="cls-2" d="M127.06,78.92c-1.36,0-2.42-.35-3.16-1.05-.74-.7-1.11-1.68-1.11-2.96s.37-2.24,1.11-2.98c.74-.74,1.8-1.11,3.16-1.11s2.36.37,3.13,1.11c.76.74,1.15,1.74,1.15,2.98s-.38,2.26-1.15,2.96c-.76.7-1.81,1.05-3.13,1.05Z"/><polygon class="cls-2" points="100.42 23.01 97.04 20.22 106.36 11.34 111.04 15.12 100.42 23.01"/></svg>